<?xml version="1.0" encoding="utf-8"?>
<!-- Generator: Adobe Illustrator 19.0.0, SVG Export Plug-In . SVG Version: 6.00 Build 0)  -->
<svg version="1.1" id="Layer_1" xmlns="http://www.w3.org/2000/svg" xmlns:xlink="http://www.w3.org/1999/xlink" x="0px" y="0px"
	 viewBox="0 0 1400 980" style="enable-background:new 0 0 1400 980;" xml:space="preserve">
<style type="text/css">
	.st0{fill:#E6E7E8;}
	.st1{fill:#CCCFD1;}
	.st2{fill:#BFC2C4;}
	.st3{fill:#1F1D1E;}
	.st4{fill:#303030;}
	.st5{fill:#0D9449;}
	.st6{fill:#0F6840;}
	.st7{fill:#8DC63F;}
	.st8{fill:#39B54A;}
	.st9{fill:#2C9947;}
	.st10{fill:#414042;}
	.st11{fill:#BCBEC0;}
	.st12{fill:#D1D3D4;}
	.st13{fill:#6D6E71;}
	.st14{fill:none;stroke:#000000;stroke-width:0.25;stroke-miterlimit:10;}
	.st15{fill:#808285;}
	.st16{fill:#A7A9AC;}
	.st17{fill:#0E5934;}
	.st18{fill:#13A34C;}
	.st19{fill:#8D5139;}
	.st20{fill:#F7941E;}
	.st21{fill:#A97C50;}
	.st22{fill:#E18726;}
	.st23{fill:#FBB040;}
	.st24{fill:#8B5E3C;}
	.st25{fill:#3C2415;}
	.st26{fill:#4A3B3C;}
	.st27{fill:#766C66;}
	.st28{opacity:0.6;fill:url(#XMLID_2_);}
	.st29{opacity:0.6;fill:url(#XMLID_3_);}
	.st30{fill:#492B1B;}
	.st31{fill:#603913;}
	.st32{fill:#704D35;}
	.st33{fill:#EAC494;}
	.st34{fill:#D8B38B;}
	.st35{fill:#7B4435;}
	.st36{fill:#594A42;}
	.st37{fill:#232323;}
	.st38{fill:#EDA33F;}
	.st39{fill:#00A651;}
	.st40{fill:#049347;}
	.st41{fill:#33A048;}
	.st42{opacity:0.4;fill:#A68A58;}
	.st43{fill:#FFFFFF;}
	.st44{fill:#262626;}
	.st45{fill:#CA2C2D;}
	.st46{fill:#333333;}
</style>
<g id="XMLID_17352_">
	<g id="XMLID_17261_">
		<rect id="XMLID_17262_" x="0" class="st0" width="1400" height="980"/>
	</g>
	<g id="XMLID_17316_">
		<rect id="XMLID_17317_" x="0" y="711.8" class="st1" width="1400" height="268.1"/>
	</g>
	<path id="XMLID_17318_" class="st2" d="M0,858.6h529.1c11,0,20-8.9,20-20l0,0c0-11-8.9-20-20-20H0V858.6z"/>
	<path id="XMLID_17353_" class="st2" d="M640.2,858.6h341.4c11,0,20-8.9,20-20l0,0c0-11-8.9-20-20-20H640.2c-11,0-20,8.9-20,20l0,0
		C620.2,849.6,629.2,858.6,640.2,858.6z"/>
	<g id="XMLID_17260_">
		<g id="XMLID_18964_">
			<rect id="XMLID_19119_" x="0" y="728.3" class="st3" width="379.8" height="11.1"/>
			<rect id="XMLID_19118_" x="0" y="654.5" class="st3" width="379.8" height="53.9"/>
			<rect id="XMLID_19117_" x="0" y="708.3" class="st4" width="379.8" height="20"/>
			<path id="XMLID_19096_" class="st5" d="M22,56.6H3.6c-2,0-3.6,1.6-3.6,3.6l0,594.2h25.7V60.3C25.7,58.3,24,56.6,22,56.6z"/>
			<path id="XMLID_19095_" class="st6" d="M21.2,631.9V66.4c0-1.8-1.5-3.3-3.3-3.3l0,0c-1.8,0-3.3,1.5-3.3,3.3v565.5
				c0,1.8,1.5,3.3,3.3,3.3l0,0C19.7,635.2,21.2,633.7,21.2,631.9z"/>
			<rect id="XMLID_19093_" x="25.7" y="96.2" class="st7" width="151.4" height="558.3"/>
			<rect id="XMLID_19092_" x="31.8" y="102.6" class="st5" width="139.1" height="545.5"/>
			<path id="XMLID_19091_" class="st6" d="M158.6,630.1V120.5c0-2.8-2.3-5.1-5.1-5.1h-12.3c-2.8,0-5.1,2.3-5.1,5.1v509.5
				c0,2.8,2.3,5.1,5.1,5.1h12.3C156.3,635.2,158.6,632.9,158.6,630.1z"/>
			<path id="XMLID_19090_" class="st5" d="M199.1,56.6h-18.4c-2,0-3.6,1.6-3.6,3.6v594.2h25.7V60.3
				C202.7,58.3,201.1,56.6,199.1,56.6z"/>
			<path id="XMLID_19089_" class="st6" d="M198.3,631.9V66.4c0-1.8-1.5-3.3-3.3-3.3l0,0c-1.8,0-3.3,1.5-3.3,3.3v565.5
				c0,1.8,1.5,3.3,3.3,3.3l0,0C196.8,635.2,198.3,633.7,198.3,631.9z"/>
			<rect id="XMLID_19088_" x="25.7" y="76.9" class="st8" width="151.4" height="19.2"/>
			<rect id="XMLID_19087_" x="202.7" y="96.2" class="st7" width="151.4" height="558.3"/>
			<rect id="XMLID_19086_" x="208.9" y="102.6" class="st5" width="139.1" height="545.5"/>
			<path id="XMLID_19085_" class="st6" d="M335.7,630.1V120.5c0-2.8-2.3-5.1-5.1-5.1h-12.3c-2.8,0-5.1,2.3-5.1,5.1v509.5
				c0,2.8,2.3,5.1,5.1,5.1h12.3C333.4,635.2,335.7,632.9,335.7,630.1z"/>
			<path id="XMLID_19084_" class="st5" d="M376.2,56.6h-18.4c-2,0-3.6,1.6-3.6,3.6v594.2h25.7V60.3
				C379.8,58.3,378.2,56.6,376.2,56.6z"/>
			<path id="XMLID_19083_" class="st6" d="M375.3,631.9V66.4c0-1.8-1.5-3.3-3.3-3.3l0,0c-1.8,0-3.3,1.5-3.3,3.3v565.5
				c0,1.8,1.5,3.3,3.3,3.3l0,0C373.8,635.2,375.3,633.7,375.3,631.9z"/>
			<rect id="XMLID_19082_" x="202.7" y="76.9" class="st8" width="151.4" height="19.2"/>
			<rect id="XMLID_19078_" x="25.7" y="89.9" class="st9" width="151.4" height="6.3"/>
			<rect id="XMLID_19077_" x="202.7" y="89.9" class="st9" width="151.4" height="6.3"/>
			<path id="XMLID_19049_" class="st3" d="M313.1,677.2c-3.6,0-6.8-2-8.6-5.2c-22.4-40.7-66.1-67.7-115.7-66.2
				c-46.9,1.4-87,27.9-108.1,66.2c-1.7,3.2-5,5.2-8.6,5.2l0,0c-7.4,0-12.1-8-8.5-14.5c24.3-44.2,70.6-74.8,124.6-76.4
				c57.2-1.7,107.7,29.4,133.4,76.3c3.6,6.5-1,14.6-8.5,14.6H313.1z"/>
			<g id="XMLID_18995_">
				<circle id="XMLID_19015_" class="st10" cx="192.6" cy="721.4" r="123.2"/>
				<circle id="XMLID_19014_" class="st4" cx="192.6" cy="721.4" r="107"/>
				<circle id="XMLID_19013_" class="st10" cx="192.6" cy="721.4" r="74.1"/>
				<circle id="XMLID_19012_" class="st4" cx="192.6" cy="721.4" r="68.2"/>
				<circle id="XMLID_19011_" class="st11" cx="192.6" cy="721.4" r="53.9"/>
				<circle id="XMLID_19010_" class="st12" cx="192.6" cy="721.4" r="38.6"/>
				<circle id="XMLID_19009_" class="st13" cx="192.6" cy="721.4" r="19.8"/>
				<circle id="XMLID_19008_" class="st10" cx="192.6" cy="721.4" r="13"/>
				<circle id="XMLID_19007_" class="st13" cx="191.9" cy="695.3" r="4.3"/>
				<circle id="XMLID_19006_" class="st10" cx="191.9" cy="695.3" r="2.8"/>
				<circle id="XMLID_19005_" class="st13" cx="214.8" cy="707.7" r="4.3"/>
				<circle id="XMLID_19004_" class="st10" cx="214.8" cy="707.7" r="2.8"/>
				<circle id="XMLID_19003_" class="st13" cx="215.6" cy="733.7" r="4.3"/>
				<circle id="XMLID_19002_" class="st10" cx="215.6" cy="733.7" r="2.8"/>
				<circle id="XMLID_19001_" class="st13" cx="193.4" cy="747.5" r="4.3"/>
				<circle id="XMLID_19000_" class="st10" cx="193.4" cy="747.5" r="2.8"/>
				<circle id="XMLID_18999_" class="st13" cx="170.4" cy="735.1" r="4.3"/>
				<circle id="XMLID_18998_" class="st10" cx="170.4" cy="735.1" r="2.8"/>
				<circle id="XMLID_18997_" class="st13" cx="169.7" cy="709" r="4.3"/>
				<circle id="XMLID_18996_" class="st10" cx="169.7" cy="709" r="2.8"/>
			</g>
			<path id="XMLID_18994_" class="st10" d="M313.1,665.1c-3.6,0-6.8-2-8.6-5.2c-22.4-40.7-66.1-67.7-115.7-66.2
				c-46.9,1.4-87,27.9-108.1,66.2c-1.7,3.2-5,5.2-8.6,5.2l0,0c-7.4,0-12.1-8-8.5-14.5c24.3-44.2,70.6-74.8,124.6-76.4
				c57.2-1.7,107.7,29.4,133.4,76.3c3.6,6.5-1,14.6-8.5,14.6H313.1z"/>
			<path id="XMLID_18983_" class="st7" d="M541.8,789.6H387.1c-4,0-7.2-3.2-7.2-7.2V202.5l167,158.7c1.4,1.4,2.3,3.3,2.3,5.2v415.9
				C549.1,786.3,545.8,789.6,541.8,789.6z"/>
			<path id="XMLID_18982_" class="st5" d="M542.6,775.9V369.2c0-2-0.8-3.9-2.3-5.2L386.2,217.4v558.5c0,4,3.2,7.2,7.2,7.2h141.9
				C539.4,783.1,542.6,779.9,542.6,775.9z"/>
			<circle id="XMLID_18981_" class="st14" cx="469.6" cy="420.3" r="22.3"/>
			<path id="XMLID_18980_" class="st6" d="M456.3,377.3V164.7c-8.2-4.7-13.8-13.4-13.8-23.5c0-15,12.1-27.1,27.1-27.1
				c15,0,27.1,12.1,27.1,27.1c0,10.1-5.6,18.8-13.8,23.5v212.6c18.4,5.7,31.8,22.8,31.8,43c0,24.9-20.2,45-45,45
				c-24.9,0-45-20.2-45-45C424.5,400.1,437.9,383,456.3,377.3z"/>
			<circle id="XMLID_18979_" class="st15" cx="469.6" cy="420.3" r="22.3"/>
			<path id="XMLID_18978_" class="st16" d="M469.6,406.4c10.9,0,19.9,7.8,21.9,18.1c-2,10.3-11,18.1-21.9,18.1
				c-10.9,0-19.9-7.8-21.9-18.1C449.6,414.2,458.7,406.4,469.6,406.4z"/>
			<circle id="XMLID_18977_" class="st15" cx="469.6" cy="141.2" r="13.4"/>
			<path id="XMLID_18976_" class="st16" d="M469.6,132.8c6.6,0,12,4.7,13.2,10.9c-1.2,6.2-6.6,10.9-13.2,10.9
				c-6.6,0-12-4.7-13.2-10.9C457.6,137.5,463,132.8,469.6,132.8z"/>
			<path id="XMLID_18975_" class="st17" d="M482.8,173.7c-2.9,1.1-6,1.7-9.2,1.7c-6.6,0-12.6-2.4-17.3-6.4v-4.3
				c3.9,2.3,8.4,3.6,13.3,3.6c4.8,0,9.3-1.4,13.3-3.6V173.7z"/>
			<path id="XMLID_18970_" class="st18" d="M416,770.2V260.6c0-2.8-2.3-5.1-5.1-5.1h-10.4c-2.8,0-5.1,2.3-5.1,5.1v509.5
				c0,2.8,2.3,5.1,5.1,5.1h10.4C413.7,775.3,416,773,416,770.2z"/>
			<path id="XMLID_19028_" class="st11" d="M58.8,659.8l-58.8,0v61.6l58.8,0c2,0,3.5-1.6,3.5-3.5v-54.5
				C62.3,661.3,60.7,659.8,58.8,659.8z"/>
			<path id="XMLID_19026_" class="st16" d="M0,721.4l58.8,0c2,0,3.5-1.6,3.5-3.5v-16.2H0V721.4z"/>
		</g>
		<g id="XMLID_17466_">
			<path id="XMLID_18657_" class="st19" d="M758.9,341.8c-39.3-12.3-78.3-11.7-116.9,0v142.1h116.9V341.8z"/>
			<path id="XMLID_18656_" class="st20" d="M642,341.8v142.1h116.9V341.8c-8.2-2.6-16.4-4.5-24.5-6v44.1c0,6.2-4.3,11.6-10.3,12.9
				c-15.7,3.3-31.4,3.5-47.2,0.1c-6-1.3-10.3-6.7-10.3-12.9v-44C658.4,337.4,650.2,339.3,642,341.8z"/>
			<g id="XMLID_18631_">
				<g id="XMLID_18654_">
					<path id="XMLID_18655_" class="st21" d="M645.9,483.9v-1.7c0-0.2-0.2-0.4-0.4-0.4c-0.2,0-0.4,0.2-0.4,0.4v1.7
						c0,0.2,0.2,0.4,0.4,0.4C645.7,484.3,645.9,484.1,645.9,483.9z"/>
				</g>
				<g id="XMLID_18634_">
					<path id="XMLID_18653_" class="st21" d="M645.1,407.5c0,0.2,0.2,0.4,0.4,0.4c0.2,0,0.4-0.2,0.4-0.4V404c0-0.2-0.2-0.4-0.4-0.4
						c-0.2,0-0.4,0.2-0.4,0.4V407.5z"/>
					<path id="XMLID_18652_" class="st21" d="M645.1,393.3c0,0.2,0.2,0.4,0.4,0.4c0.2,0,0.4-0.2,0.4-0.4v-3.6c0-0.2-0.2-0.4-0.4-0.4
						c-0.2,0-0.4,0.2-0.4,0.4V393.3z"/>
					<path id="XMLID_18651_" class="st21" d="M645.1,386.2c0,0.2,0.2,0.4,0.4,0.4c0.2,0,0.4-0.2,0.4-0.4v-3.6c0-0.2-0.2-0.4-0.4-0.4
						c-0.2,0-0.4,0.2-0.4,0.4V386.2z"/>
					<path id="XMLID_18650_" class="st21" d="M645.1,400.4c0,0.2,0.2,0.4,0.4,0.4c0.2,0,0.4-0.2,0.4-0.4v-3.6c0-0.2-0.2-0.4-0.4-0.4
						c-0.2,0-0.4,0.2-0.4,0.4V400.4z"/>
					<path id="XMLID_18649_" class="st21" d="M645.1,379.1c0,0.2,0.2,0.4,0.4,0.4c0.2,0,0.4-0.2,0.4-0.4v-3.6c0-0.2-0.2-0.4-0.4-0.4
						c-0.2,0-0.4,0.2-0.4,0.4V379.1z"/>
					<path id="XMLID_18648_" class="st21" d="M645.1,357.8c0,0.2,0.2,0.4,0.4,0.4c0.2,0,0.4-0.2,0.4-0.4v-3.6c0-0.2-0.2-0.4-0.4-0.4
						c-0.2,0-0.4,0.2-0.4,0.4V357.8z"/>
					<path id="XMLID_18647_" class="st21" d="M645.1,372c0,0.2,0.2,0.4,0.4,0.4c0.2,0,0.4-0.2,0.4-0.4v-3.6c0-0.2-0.2-0.4-0.4-0.4
						c-0.2,0-0.4,0.2-0.4,0.4V372z"/>
					<path id="XMLID_18646_" class="st21" d="M645.5,351.1c0.2,0,0.4-0.2,0.4-0.4v-3.6c0-0.2-0.2-0.4-0.4-0.4
						c-0.2,0-0.4,0.2-0.4,0.4v3.6C645.1,350.9,645.3,351.1,645.5,351.1z"/>
					<path id="XMLID_18645_" class="st21" d="M645.1,364.9c0,0.2,0.2,0.4,0.4,0.4c0.2,0,0.4-0.2,0.4-0.4v-3.6c0-0.2-0.2-0.4-0.4-0.4
						c-0.2,0-0.4,0.2-0.4,0.4V364.9z"/>
					<path id="XMLID_18644_" class="st21" d="M645.1,457.3c0,0.2,0.2,0.4,0.4,0.4c0.2,0,0.4-0.2,0.4-0.4v-3.6c0-0.2-0.2-0.4-0.4-0.4
						c-0.2,0-0.4,0.2-0.4,0.4V457.3z"/>
					<path id="XMLID_18643_" class="st21" d="M645.1,478.6c0,0.2,0.2,0.4,0.4,0.4c0.2,0,0.4-0.2,0.4-0.4V475c0-0.2-0.2-0.4-0.4-0.4
						c-0.2,0-0.4,0.2-0.4,0.4V478.6z"/>
					<path id="XMLID_18642_" class="st21" d="M645.1,464.4c0,0.2,0.2,0.4,0.4,0.4c0.2,0,0.4-0.2,0.4-0.4v-3.6c0-0.2-0.2-0.4-0.4-0.4
						c-0.2,0-0.4,0.2-0.4,0.4V464.4z"/>
					<path id="XMLID_18641_" class="st21" d="M645.1,450.2c0,0.2,0.2,0.4,0.4,0.4c0.2,0,0.4-0.2,0.4-0.4v-3.6c0-0.2-0.2-0.4-0.4-0.4
						c-0.2,0-0.4,0.2-0.4,0.4V450.2z"/>
					<path id="XMLID_18640_" class="st21" d="M645.1,471.5c0,0.2,0.2,0.4,0.4,0.4c0.2,0,0.4-0.2,0.4-0.4v-3.6c0-0.2-0.2-0.4-0.4-0.4
						c-0.2,0-0.4,0.2-0.4,0.4V471.5z"/>
					<path id="XMLID_18639_" class="st21" d="M645.1,414.6c0,0.2,0.2,0.4,0.4,0.4c0.2,0,0.4-0.2,0.4-0.4v-3.6c0-0.2-0.2-0.4-0.4-0.4
						c-0.2,0-0.4,0.2-0.4,0.4V414.6z"/>
					<path id="XMLID_18638_" class="st21" d="M645.1,428.8c0,0.2,0.2,0.4,0.4,0.4c0.2,0,0.4-0.2,0.4-0.4v-3.6c0-0.2-0.2-0.4-0.4-0.4
						c-0.2,0-0.4,0.2-0.4,0.4V428.8z"/>
					<path id="XMLID_18637_" class="st21" d="M645.1,421.7c0,0.2,0.2,0.4,0.4,0.4c0.2,0,0.4-0.2,0.4-0.4v-3.6c0-0.2-0.2-0.4-0.4-0.4
						c-0.2,0-0.4,0.2-0.4,0.4V421.7z"/>
					<path id="XMLID_18636_" class="st21" d="M645.1,436c0,0.2,0.2,0.4,0.4,0.4c0.2,0,0.4-0.2,0.4-0.4v-3.6c0-0.2-0.2-0.4-0.4-0.4
						c-0.2,0-0.4,0.2-0.4,0.4V436z"/>
					<path id="XMLID_18635_" class="st21" d="M645.1,443.1c0,0.2,0.2,0.4,0.4,0.4c0.2,0,0.4-0.2,0.4-0.4v-3.6c0-0.2-0.2-0.4-0.4-0.4
						c-0.2,0-0.4,0.2-0.4,0.4V443.1z"/>
				</g>
				<g id="XMLID_18632_">
					<path id="XMLID_18633_" class="st21" d="M645.9,343.6v-1.7c0-0.2-0.2-0.4-0.4-0.4c-0.2,0-0.4,0.2-0.4,0.4v1.7
						c0,0.2,0.2,0.4,0.4,0.4C645.7,344,645.9,343.8,645.9,343.6z"/>
				</g>
			</g>
			<rect id="XMLID_18537_" x="642" y="473" class="st22" width="116.9" height="10.8"/>
			<g id="XMLID_18605_">
				<g id="XMLID_18629_">
					<path id="XMLID_18630_" class="st21" d="M755.5,344c-0.2,0-0.4-0.2-0.4-0.4v-1.7c0-0.2,0.2-0.4,0.4-0.4c0.2,0,0.4,0.2,0.4,0.4
						v1.7C755.9,343.8,755.7,344,755.5,344z"/>
				</g>
				<g id="XMLID_18608_">
					<path id="XMLID_18609_" class="st21" d="M755.5,479.1c-0.2,0-0.4-0.2-0.4-0.4v-3.6c0-0.2,0.2-0.4,0.4-0.4
						c0.2,0,0.4,0.2,0.4,0.4v3.6C755.9,478.9,755.7,479.1,755.5,479.1z M755.5,471.9c-0.2,0-0.4-0.2-0.4-0.4V468
						c0-0.2,0.2-0.4,0.4-0.4c0.2,0,0.4,0.2,0.4,0.4v3.6C755.9,471.8,755.7,471.9,755.5,471.9z M755.5,464.8c-0.2,0-0.4-0.2-0.4-0.4
						v-3.6c0-0.2,0.2-0.4,0.4-0.4c0.2,0,0.4,0.2,0.4,0.4v3.6C755.9,464.6,755.7,464.8,755.5,464.8z M755.5,457.7
						c-0.2,0-0.4-0.2-0.4-0.4v-3.6c0-0.2,0.2-0.4,0.4-0.4c0.2,0,0.4,0.2,0.4,0.4v3.6C755.9,457.5,755.7,457.7,755.5,457.7z
						 M755.5,450.6c-0.2,0-0.4-0.2-0.4-0.4v-3.6c0-0.2,0.2-0.4,0.4-0.4c0.2,0,0.4,0.2,0.4,0.4v3.6
						C755.9,450.4,755.7,450.6,755.5,450.6z M755.5,443.5c-0.2,0-0.4-0.2-0.4-0.4v-3.6c0-0.2,0.2-0.4,0.4-0.4c0.2,0,0.4,0.2,0.4,0.4
						v3.6C755.9,443.3,755.7,443.5,755.5,443.5z M755.5,436.4c-0.2,0-0.4-0.2-0.4-0.4v-3.6c0-0.2,0.2-0.4,0.4-0.4
						c0.2,0,0.4,0.2,0.4,0.4v3.6C755.9,436.2,755.7,436.4,755.5,436.4z M755.5,429.3c-0.2,0-0.4-0.2-0.4-0.4v-3.6
						c0-0.2,0.2-0.4,0.4-0.4c0.2,0,0.4,0.2,0.4,0.4v3.6C755.9,429.1,755.7,429.3,755.5,429.3z M755.5,422.2c-0.2,0-0.4-0.2-0.4-0.4
						v-3.6c0-0.2,0.2-0.4,0.4-0.4c0.2,0,0.4,0.2,0.4,0.4v3.6C755.9,422,755.7,422.2,755.5,422.2z M755.5,415.1
						c-0.2,0-0.4-0.2-0.4-0.4v-3.6c0-0.2,0.2-0.4,0.4-0.4c0.2,0,0.4,0.2,0.4,0.4v3.6C755.9,414.9,755.7,415.1,755.5,415.1z
						 M755.5,408c-0.2,0-0.4-0.2-0.4-0.4V404c0-0.2,0.2-0.4,0.4-0.4c0.2,0,0.4,0.2,0.4,0.4v3.6C755.9,407.8,755.7,408,755.5,408z
						 M755.5,400.9c-0.2,0-0.4-0.2-0.4-0.4v-3.6c0-0.2,0.2-0.4,0.4-0.4c0.2,0,0.4,0.2,0.4,0.4v3.6
						C755.9,400.7,755.7,400.9,755.5,400.9z M755.5,393.8c-0.2,0-0.4-0.2-0.4-0.4v-3.6c0-0.2,0.2-0.4,0.4-0.4c0.2,0,0.4,0.2,0.4,0.4
						v3.6C755.9,393.6,755.7,393.8,755.5,393.8z M755.5,386.6c-0.2,0-0.4-0.2-0.4-0.4v-3.6c0-0.2,0.2-0.4,0.4-0.4
						c0.2,0,0.4,0.2,0.4,0.4v3.6C755.9,386.5,755.7,386.6,755.5,386.6z M755.5,379.5c-0.2,0-0.4-0.2-0.4-0.4v-3.6
						c0-0.2,0.2-0.4,0.4-0.4c0.2,0,0.4,0.2,0.4,0.4v3.6C755.9,379.3,755.7,379.5,755.5,379.5z M755.5,372.4c-0.2,0-0.4-0.2-0.4-0.4
						v-3.6c0-0.2,0.2-0.4,0.4-0.4c0.2,0,0.4,0.2,0.4,0.4v3.6C755.9,372.2,755.7,372.4,755.5,372.4z M755.5,365.3
						c-0.2,0-0.4-0.2-0.4-0.4v-3.6c0-0.2,0.2-0.4,0.4-0.4c0.2,0,0.4,0.2,0.4,0.4v3.6C755.9,365.1,755.7,365.3,755.5,365.3z
						 M755.5,358.2c-0.2,0-0.4-0.2-0.4-0.4v-3.6c0-0.2,0.2-0.4,0.4-0.4c0.2,0,0.4,0.2,0.4,0.4v3.6
						C755.9,358,755.7,358.2,755.5,358.2z M755.5,351.1c-0.2,0-0.4-0.2-0.4-0.4v-3.6c0-0.2,0.2-0.4,0.4-0.4c0.2,0,0.4,0.2,0.4,0.4
						v3.6C755.9,350.9,755.7,351.1,755.5,351.1z"/>
				</g>
				<g id="XMLID_18606_">
					<path id="XMLID_18607_" class="st21" d="M755.5,484.4c-0.2,0-0.4-0.2-0.4-0.4v-1.7c0-0.2,0.2-0.4,0.4-0.4
						c0.2,0,0.4,0.2,0.4,0.4v1.7C755.9,484.2,755.7,484.4,755.5,484.4z"/>
				</g>
			</g>
			<g id="XMLID_18574_">
				<g id="XMLID_18603_">
					<path id="XMLID_18604_" class="st21" d="M663.5,339.3v-1.7c0-0.2-0.2-0.4-0.4-0.4s-0.4,0.2-0.4,0.4v1.7c0,0.2,0.2,0.4,0.4,0.4
						S663.5,339.5,663.5,339.3z"/>
				</g>
				<g id="XMLID_18577_">
					<path id="XMLID_18602_" class="st21" d="M674.9,396.3c0.2,0,0.4-0.1,0.4-0.3c0.1-0.2-0.1-0.5-0.3-0.5c-1.1-0.3-2.1-0.7-3.1-1.3
						c-0.2-0.1-0.5,0-0.6,0.2c-0.1,0.2,0,0.5,0.2,0.6c1,0.6,2.1,1,3.3,1.4C674.8,396.3,674.9,396.3,674.9,396.3z"/>
					<path id="XMLID_18601_" class="st21" d="M668.7,392.9c0.1,0.1,0.2,0.1,0.3,0.1c0.1,0,0.2-0.1,0.3-0.2c0.2-0.2,0.1-0.5,0-0.6
						c-0.8-0.7-1.6-1.5-2.3-2.4c-0.1-0.2-0.4-0.2-0.6-0.1c-0.2,0.1-0.2,0.4-0.1,0.6C667,391.3,667.8,392.2,668.7,392.9z"/>
					<path id="XMLID_18600_" class="st21" d="M663.2,384.1c0.3,1.1,0.7,2.3,1.2,3.3c0.1,0.2,0.2,0.2,0.4,0.2c0.1,0,0.1,0,0.2,0
						c0.2-0.1,0.3-0.4,0.2-0.6c-0.5-1-0.9-2.1-1.1-3.1c-0.1-0.2-0.3-0.4-0.5-0.3C663.3,383.6,663.1,383.8,663.2,384.1z"/>
					<path id="XMLID_18599_" class="st21" d="M681.6,397.7C681.6,397.7,681.6,397.7,681.6,397.7c0.3,0,0.5-0.1,0.5-0.4
						c0-0.2-0.1-0.5-0.4-0.5c-1.1-0.2-2.2-0.4-3.4-0.6c-0.2,0-0.5,0.1-0.5,0.3c0,0.2,0.1,0.5,0.3,0.5
						C679.3,397.3,680.5,397.5,681.6,397.7z"/>
					<path id="XMLID_18598_" class="st21" d="M695.3,399.1C695.3,399.1,695.3,399.1,695.3,399.1c0.3,0,0.4-0.2,0.5-0.4
						c0-0.2-0.2-0.4-0.4-0.5c-1.1,0-2.3-0.1-3.4-0.2c-0.3,0-0.4,0.2-0.5,0.4c0,0.2,0.2,0.4,0.4,0.5C693,399,694.2,399,695.3,399.1z"
						/>
					<path id="XMLID_18597_" class="st21" d="M662.7,379.9c0,0.2,0,0.4,0,0.6c0,0.2,0.2,0.4,0.4,0.4c0,0,0,0,0,0
						c0.2,0,0.4-0.2,0.4-0.5c0-0.2,0-0.4,0-0.6v-2.8c0-0.2-0.2-0.4-0.4-0.4s-0.4,0.2-0.4,0.4V379.9z"/>
					<path id="XMLID_18596_" class="st21" d="M688.4,398.6C688.5,398.6,688.5,398.6,688.4,398.6c0.3,0,0.5-0.2,0.5-0.4
						c0-0.2-0.1-0.5-0.4-0.5c-1.1-0.1-2.3-0.3-3.4-0.4c-0.2,0-0.5,0.1-0.5,0.4c0,0.2,0.1,0.5,0.4,0.5
						C686.2,398.3,687.3,398.5,688.4,398.6z"/>
					<path id="XMLID_18595_" class="st21" d="M663.1,346.6c0.2,0,0.4-0.2,0.4-0.4v-3.4c0-0.2-0.2-0.4-0.4-0.4s-0.4,0.2-0.4,0.4v3.4
						C662.7,346.4,662.9,346.6,663.1,346.6z"/>
					<path id="XMLID_18594_" class="st21" d="M662.7,353c0,0.2,0.2,0.4,0.4,0.4s0.4-0.2,0.4-0.4v-3.4c0-0.2-0.2-0.4-0.4-0.4
						s-0.4,0.2-0.4,0.4V353z"/>
					<path id="XMLID_18593_" class="st21" d="M662.7,359.9c0,0.2,0.2,0.4,0.4,0.4s0.4-0.2,0.4-0.4v-3.4c0-0.2-0.2-0.4-0.4-0.4
						s-0.4,0.2-0.4,0.4V359.9z"/>
					<path id="XMLID_18592_" class="st21" d="M662.7,373.7c0,0.2,0.2,0.4,0.4,0.4s0.4-0.2,0.4-0.4v-3.4c0-0.2-0.2-0.4-0.4-0.4
						s-0.4,0.2-0.4,0.4V373.7z"/>
					<path id="XMLID_18591_" class="st21" d="M662.7,366.8c0,0.2,0.2,0.4,0.4,0.4s0.4-0.2,0.4-0.4v-3.4c0-0.2-0.2-0.4-0.4-0.4
						s-0.4,0.2-0.4,0.4V366.8z"/>
					<path id="XMLID_18590_" class="st21" d="M737.4,379.9c0,0.2,0,0.4,0,0.6c0,0.2,0.2,0.4,0.4,0.5c0,0,0,0,0,0
						c0.2,0,0.4-0.2,0.4-0.4c0-0.2,0-0.4,0-0.6V377c0-0.2-0.2-0.4-0.4-0.4c-0.2,0-0.4,0.2-0.4,0.4V379.9z"/>
					<path id="XMLID_18589_" class="st21" d="M737.4,359.8c0,0.2,0.2,0.4,0.4,0.4c0.2,0,0.4-0.2,0.4-0.4v-3.4c0-0.2-0.2-0.4-0.4-0.4
						c-0.2,0-0.4,0.2-0.4,0.4V359.8z"/>
					<path id="XMLID_18588_" class="st21" d="M700.2,399.2c0.7,0,1.4,0,2,0c0.2,0,0.4-0.2,0.4-0.4c0-0.2-0.2-0.4-0.4-0.4
						c-1.1,0-2.3,0-3.4,0c-0.2-0.1-0.4,0.2-0.4,0.4c0,0.2,0.2,0.4,0.4,0.4C699.2,399.2,699.7,399.2,700.2,399.2z"/>
					<path id="XMLID_18587_" class="st21" d="M737.9,346.5c0.2,0,0.4-0.2,0.4-0.4v-3.4c0-0.2-0.2-0.4-0.4-0.4
						c-0.2,0-0.4,0.2-0.4,0.4v3.4C737.4,346.3,737.6,346.5,737.9,346.5z"/>
					<path id="XMLID_18586_" class="st21" d="M737.4,373.6c0,0.2,0.2,0.4,0.4,0.4c0.2,0,0.4-0.2,0.4-0.4v-3.4c0-0.2-0.2-0.4-0.4-0.4
						c-0.2,0-0.4,0.2-0.4,0.4V373.6z"/>
					<path id="XMLID_18585_" class="st21" d="M737,383.8c-0.3,1.1-0.7,2.1-1.1,3.1c-0.1,0.2,0,0.5,0.2,0.6c0.1,0,0.1,0,0.2,0
						c0.2,0,0.3-0.1,0.4-0.2c0.5-1.1,0.9-2.2,1.2-3.3c0.1-0.2-0.1-0.5-0.3-0.5C737.3,383.4,737,383.5,737,383.8z"/>
					<path id="XMLID_18584_" class="st21" d="M737.4,353c0,0.2,0.2,0.4,0.4,0.4c0.2,0,0.4-0.2,0.4-0.4v-3.4c0-0.2-0.2-0.4-0.4-0.4
						c-0.2,0-0.4,0.2-0.4,0.4V353z"/>
					<path id="XMLID_18583_" class="st21" d="M737.4,366.7c0,0.2,0.2,0.4,0.4,0.4c0.2,0,0.4-0.2,0.4-0.4v-3.4c0-0.2-0.2-0.4-0.4-0.4
						c-0.2,0-0.4,0.2-0.4,0.4V366.7z"/>
					<path id="XMLID_18582_" class="st21" d="M705.7,399.1c1.1-0.1,2.3-0.1,3.4-0.2c0.2,0,0.4-0.2,0.4-0.5c0-0.2-0.2-0.4-0.5-0.4
						c-1.1,0.1-2.3,0.2-3.4,0.2c-0.2,0-0.4,0.2-0.4,0.5C705.2,398.9,705.4,399.1,705.7,399.1C705.7,399.1,705.7,399.1,705.7,399.1z"
						/>
					<path id="XMLID_18581_" class="st21" d="M712.6,398.5c1.1-0.1,2.3-0.3,3.4-0.4c0.2,0,0.4-0.3,0.4-0.5c0-0.2-0.2-0.4-0.5-0.4
						c-1.1,0.2-2.3,0.3-3.4,0.4c-0.2,0-0.4,0.2-0.4,0.5C712.1,398.4,712.3,398.5,712.6,398.5C712.5,398.5,712.5,398.5,712.6,398.5z"
						/>
					<path id="XMLID_18580_" class="st21" d="M732.3,392.8c0.9-0.8,1.7-1.6,2.4-2.6c0.1-0.2,0.1-0.5-0.1-0.6
						c-0.2-0.1-0.5-0.1-0.6,0.1c-0.7,0.9-1.5,1.7-2.3,2.4c-0.2,0.2-0.2,0.4,0,0.6c0.1,0.1,0.2,0.2,0.3,0.2
						C732.2,393,732.3,392.9,732.3,392.8z"/>
					<path id="XMLID_18579_" class="st21" d="M726.1,396.2c0,0,0.1,0,0.1,0c1.1-0.3,2.2-0.8,3.3-1.4c0.2-0.1,0.3-0.4,0.2-0.6
						c-0.1-0.2-0.4-0.3-0.6-0.2c-1,0.5-2,1-3.1,1.3c-0.2,0.1-0.4,0.3-0.3,0.5C725.7,396.1,725.9,396.2,726.1,396.2z"/>
					<path id="XMLID_18578_" class="st21" d="M719.4,397.6c1.1-0.2,2.3-0.4,3.4-0.6c0.2,0,0.4-0.3,0.3-0.5c0-0.2-0.3-0.4-0.5-0.3
						c-1.1,0.2-2.2,0.4-3.4,0.6c-0.2,0-0.4,0.3-0.4,0.5C718.9,397.4,719.1,397.6,719.4,397.6C719.3,397.6,719.4,397.6,719.4,397.6z"
						/>
				</g>
				<g id="XMLID_18575_">
					<path id="XMLID_18576_" class="st21" d="M738.3,339.2v-1.7c0-0.2-0.2-0.4-0.4-0.4c-0.2,0-0.4,0.2-0.4,0.4v1.7
						c0,0.2,0.2,0.4,0.4,0.4C738.1,339.6,738.3,339.4,738.3,339.2z"/>
				</g>
			</g>
			<path id="XMLID_18573_" class="st20" d="M758.9,770.1V483.9h-44h-28.8h-44v286.1h44V526.2c0-10,28.8-10,28.8,0v243.9H758.9z"/>
			<rect id="XMLID_18520_" x="642" y="493" class="st22" width="116.9" height="4.4"/>
			<path id="XMLID_18572_" class="st23" d="M759.6,778.2c1.6,0,2.8-1.3,2.8-2.8v-2.5c0-1.6-1.3-2.8-2.8-2.8h-45.2
				c-1.6,0-2.8,1.3-2.8,2.8v2.5c0,1.6,1.3,2.8,2.8,2.8H759.6z"/>
			<path id="XMLID_18571_" class="st20" d="M759.6,786.4c1.6,0,2.8-1.3,2.8-2.8v-2.5c0-1.6-1.3-2.8-2.8-2.8h-45.2
				c-1.6,0-2.8,1.3-2.8,2.8v2.5c0,1.6,1.3,2.8,2.8,2.8H759.6z"/>
			<path id="XMLID_18570_" class="st24" d="M759,798.3c1.9,0,3.4-1.5,3.4-3.4v-5.1c0-1.9-1.5-3.4-3.4-3.4h-44
				c-1.9,0-3.4,1.5-3.4,3.4v5.1c0,1.9,1.5,3.4,3.4,3.4H759z"/>
			<path id="XMLID_18569_" class="st25" d="M714.4,798.3v11.9v28.3H798v-28.3h-34.5c-2.2,0-4-1.8-4-4v-7.9H714.4z"/>
			<rect id="XMLID_18568_" x="713.8" y="838.6" class="st26" width="89.1" height="4.8"/>
			<rect id="XMLID_18567_" x="713.8" y="838.6" class="st26" width="14.5" height="7.6"/>
			<rect id="XMLID_18566_" x="732.4" y="838.6" class="st26" width="14.5" height="7.6"/>
			<rect id="XMLID_18565_" x="751.1" y="838.6" class="st26" width="14.5" height="7.6"/>
			<rect id="XMLID_18564_" x="769.8" y="838.6" class="st26" width="14.5" height="7.6"/>
			<rect id="XMLID_18563_" x="788.4" y="838.6" class="st26" width="14.5" height="7.6"/>
			<path id="XMLID_18562_" class="st27" d="M759.5,803.9v-2.8h-11c-0.7,0-1.2,0.5-1.2,1.2v0.4c0,0.7,0.5,1.2,1.2,1.2H759.5z"/>
			<path id="XMLID_18561_" class="st27" d="M767.2,819.4c0.7,0,1.2-0.5,1.2-1.2v-8h-2.8v8c0,0.7,0.5,1.2,1.2,1.2H767.2z"/>
			<path id="XMLID_18560_" class="st27" d="M749.3,807.5c-0.6,0.1-1.1,0.7-1,1.4l0.1,0.4c0.1,0.6,0.7,1.1,1.4,1l10.3-1.9
				c-0.4-0.6-0.6-1.3-0.6-2.1v-0.6L749.3,807.5z"/>
			<path id="XMLID_18559_" class="st27" d="M758.2,817.5l5.1-7.2c-1-0.1-1.9-0.5-2.6-1.1l-4.8,6.8c-0.4,0.5-0.2,1.3,0.3,1.6l0.3,0.2
				C757.1,818.1,757.8,818,758.2,817.5z"/>
			<path id="XMLID_18558_" class="st23" d="M686.6,778.2c1.6,0,2.8-1.3,2.8-2.8v-2.5c0-1.6-1.3-2.8-2.8-2.8h-45.2
				c-1.6,0-2.8,1.3-2.8,2.8v2.5c0,1.6,1.3,2.8,2.8,2.8H686.6z"/>
			<path id="XMLID_18557_" class="st20" d="M686.6,786.4c1.6,0,2.8-1.3,2.8-2.8v-2.5c0-1.6-1.3-2.8-2.8-2.8h-45.2
				c-1.6,0-2.8,1.3-2.8,2.8v2.5c0,1.6,1.3,2.8,2.8,2.8H686.6z"/>
			<path id="XMLID_18552_" class="st24" d="M686,798.3c1.9,0,3.4-1.5,3.4-3.4v-5.1c0-1.9-1.5-3.4-3.4-3.4h-44
				c-1.9,0-3.4,1.5-3.4,3.4v5.1c0,1.9,1.5,3.4,3.4,3.4H686z"/>
			<path id="XMLID_18551_" class="st25" d="M641.5,798.3v11.9v28.3H725v-28.3h-34.5c-2.2,0-4-1.8-4-4v-7.9H641.5z"/>
			<linearGradient id="XMLID_2_" gradientUnits="userSpaceOnUse" x1="756.2009" y1="798.3375" x2="756.2009" y2="838.6065">
				<stop  offset="0" style="stop-color:#000000;stop-opacity:0"/>
				<stop  offset="0.8529" style="stop-color:#000000;stop-opacity:0.8529"/>
				<stop  offset="1" style="stop-color:#000000"/>
			</linearGradient>
			<path id="XMLID_18550_" class="st28" d="M714.4,798.3v11.9v28.3H798v-28.3h-34.5c-2.2,0-4-1.8-4-4v-7.9H714.4z"/>
			<linearGradient id="XMLID_3_" gradientUnits="userSpaceOnUse" x1="683.2224" y1="798.3375" x2="683.2224" y2="838.6065">
				<stop  offset="0" style="stop-color:#000000;stop-opacity:0"/>
				<stop  offset="0.8529" style="stop-color:#000000;stop-opacity:0.8529"/>
				<stop  offset="1" style="stop-color:#000000"/>
			</linearGradient>
			<path id="XMLID_18549_" class="st29" d="M641.5,798.3v11.9v28.3H725v-28.3h-34.5c-2.2,0-4-1.8-4-4v-7.9H641.5z"/>
			<rect id="XMLID_18548_" x="640.8" y="838.6" class="st26" width="89.1" height="4.8"/>
			<rect id="XMLID_18547_" x="640.8" y="838.6" class="st26" width="14.5" height="7.6"/>
			<rect id="XMLID_18546_" x="659.5" y="838.6" class="st26" width="14.5" height="7.6"/>
			<rect id="XMLID_18545_" x="678.1" y="838.6" class="st26" width="14.5" height="7.6"/>
			<rect id="XMLID_18544_" x="696.8" y="838.6" class="st26" width="14.5" height="7.6"/>
			<rect id="XMLID_18543_" x="715.4" y="838.6" class="st26" width="14.5" height="7.6"/>
			<path id="XMLID_18542_" class="st27" d="M686.5,803.9v-2.8h-11c-0.7,0-1.2,0.5-1.2,1.2v0.4c0,0.7,0.5,1.2,1.2,1.2H686.5z"/>
			<path id="XMLID_18541_" class="st27" d="M694.2,819.4c0.7,0,1.2-0.5,1.2-1.2v-8h-2.8v8c0,0.7,0.5,1.2,1.2,1.2H694.2z"/>
			<path id="XMLID_18540_" class="st27" d="M676.4,807.5c-0.6,0.1-1.1,0.7-1,1.4l0.1,0.4c0.1,0.6,0.7,1.1,1.4,1l10.3-1.9
				c-0.4-0.6-0.6-1.3-0.6-2.1v-0.6L676.4,807.5z"/>
			<path id="XMLID_18539_" class="st27" d="M685.2,817.5l5.1-7.2c-1-0.1-1.9-0.5-2.6-1.1l-4.8,6.8c-0.4,0.5-0.2,1.3,0.3,1.6l0.3,0.2
				C684.1,818.1,684.8,818,685.2,817.5z"/>
			<rect id="XMLID_18536_" x="642" y="764.9" class="st22" width="44" height="5.2"/>
			<rect id="XMLID_18535_" x="715" y="764.9" class="st22" width="44" height="5.2"/>
			<path id="XMLID_18534_" class="st30" d="M790,806.9h-15.7c-2.3,0-4.1,1.9-4.1,4.1v27.5H802v-19.7
				C802,812.3,796.6,806.9,790,806.9z"/>
			<path id="XMLID_18533_" class="st30" d="M717,806.9h-15.7c-2.3,0-4.1,1.9-4.1,4.1v27.5H729v-19.7
				C729,812.3,723.6,806.9,717,806.9z"/>
			<path id="XMLID_17815_" class="st19" d="M769.9,341.8h-11v202.3h21.8V352.7C780.7,346.7,775.9,341.8,769.9,341.8z"/>
			<path id="XMLID_17814_" class="st19" d="M642,478V341.8h-12.8c-5,0-9,4-9,9v120.4c0,3.7,3,6.8,6.8,6.8H642z"/>
			<path id="XMLID_17813_" class="st19" d="M721.7,478v-21.8H620.2v20c0,1,0.8,1.8,1.8,1.8H721.7z"/>
			<rect id="XMLID_17785_" x="642" y="483.9" class="st31" width="116.9" height="9.2"/>
			<path id="XMLID_17782_" class="st24" d="M708.7,495c0.9,0,1.6-0.9,1.6-1.9v-9.3c0-1.1-0.7-1.9-1.6-1.9h-16.3
				c-0.9,0-1.6,0.9-1.6,1.9v9.3c0,1.1,0.7,1.9,1.6,1.9H708.7z M692.4,485.3c0-0.8,0.6-1.5,1.3-1.5l13.8,0.1c0.7,0,1.2,0.7,1.2,1.5
				l0,6.2c0,0.8-0.6,1.5-1.2,1.5h-13.8c-0.7,0-1.3-0.7-1.2-1.5L692.4,485.3z"/>
			<path id="XMLID_17781_" class="st32" d="M692.3,489.5v-2.3h-0.9c-0.3,0-0.3,2.3,0,2.3H692.3z"/>
			<path id="XMLID_17780_" class="st24" d="M695.5,489.3c0.3,0,0.5-0.2,0.5-0.5v-0.9c0-0.3-0.2-0.5-0.5-0.5h-3.6
				c-0.3,0-0.5,0.2-0.5,0.5v0.9c0,0.3,0.2,0.5,0.5,0.5H695.5z"/>
			<rect id="XMLID_17779_" x="725" y="483.9" class="st20" width="4" height="9.2"/>
			<rect id="XMLID_17778_" x="745.2" y="483.9" class="st20" width="4" height="9.2"/>
			<rect id="XMLID_17777_" x="651.7" y="483.9" class="st20" width="4" height="9.2"/>
			<rect id="XMLID_17776_" x="671.9" y="483.9" class="st20" width="4" height="9.2"/>
			<path id="XMLID_17775_" class="st33" d="M763.5,559.7v-15.6h-4.2v15.6C759.3,562.4,763.5,562.4,763.5,559.7z"/>
			<path id="XMLID_17774_" class="st33" d="M767.7,559.7v-15.6h-4.2v15.6C763.5,562.4,767.7,562.4,767.7,559.7z"/>
			<path id="XMLID_17773_" class="st33" d="M771.9,559.7l0-15.6h-4.2v15.6C767.7,562.4,771.9,562.4,771.9,559.7z"/>
			<path id="XMLID_17772_" class="st33" d="M776.1,559.7v-15.6h-4.2l0,15.6C771.9,562.4,776.1,562.4,776.1,559.7z"/>
			<g id="XMLID_17761_">
				<path id="XMLID_17766_" class="st33" d="M737.9,473h-16.2v4.4h16.2C740.7,477.4,740.7,473,737.9,473z"/>
				<path id="XMLID_17765_" class="st33" d="M737.9,468.7h-16.2v4.4h16.2C740.7,473,740.7,468.7,737.9,468.7z"/>
				<path id="XMLID_17764_" class="st33" d="M737.9,464.3h-16.2v4.4h16.2C740.7,468.7,740.7,464.3,737.9,464.3z"/>
				<path id="XMLID_17763_" class="st33" d="M737.9,459.9h-16.2v4.4h16.2C740.7,464.3,740.7,459.9,737.9,459.9z"/>
				<path id="XMLID_17762_" class="st33" d="M726.3,457.1c-0.8,0-1.8-0.2-2.7-0.6c-0.9-0.4-1.9,0.3-1.9,1.3l0,2.1h7.8h3.2h2
					c0.8-3.5,0.5-8.6-0.8-11c-1.3-2.4-4.4-1.9-4.4,0c0.3,1.5,0.4,3,0.4,4.5C730,455.5,728.3,457.2,726.3,457.1z"/>
			</g>
			<path id="XMLID_17760_" class="st34" d="M721.7,457.8v19.6C724.5,477.4,724.5,457.8,721.7,457.8z"/>
			<path id="XMLID_17759_" class="st33" d="M776.1,544.1v5.3c0,1.8-0.6,3.5-1.8,4.8l-2.5,2.8c-1.3,1.5,1.8,4.3,3.1,2.8l6.3-7
				c0.9-1,1-2.6,0.2-3.7c-0.7-1-1.1-2.3-1.1-3.6v-1.3H776.1z"/>
			<path id="XMLID_17758_" class="st34" d="M780.3,544.1h-20.9C759.4,547.2,780.3,547.2,780.3,544.1z"/>
			<path id="XMLID_17757_" class="st35" d="M730.5,335.1c-19.3-3-38.4-3.1-57.5-0.3C673.2,356.6,729.9,356.7,730.5,335.1z"/>
			<rect id="XMLID_17756_" x="638.5" y="341.8" class="st35" width="3.6" height="114.4"/>
			<rect id="XMLID_17755_" x="758.9" y="341.8" class="st35" width="3.6" height="202.3"/>
			<g id="XMLID_17471_">
				<path id="XMLID_17754_" class="st33" d="M701.9,334.7c26.3,0,47.6-12,47.6-38.3v-45.5c0-16.3-13.2-29.6-29.6-29.6h-36.2
					c-16.3,0-29.6,13.2-29.6,29.6v45.5c0,26.3,21.3,38.3,47.6,38.3H701.9z"/>
				<circle id="XMLID_17753_" class="st36" cx="686.1" cy="279" r="2.4"/>
				<circle id="XMLID_17752_" class="st36" cx="714.8" cy="279" r="2.4"/>
				<path id="XMLID_17751_" class="st33" d="M654.1,290.6v-23.1h-1.6c-1.3,0-2.4,1.1-2.4,2.4v18.3c0,1.3,1.1,2.4,2.4,2.4H654.1z"/>
				<path id="XMLID_17750_" class="st33" d="M753.6,288.2v-18.3c0-1.3-1.1-2.4-2.4-2.4h-1.6v23.1h1.6
					C752.5,290.6,753.6,289.5,753.6,288.2z"/>
				<ellipse id="XMLID_17749_" class="st34" cx="701.8" cy="304.2" rx="12.1" ry="3.4"/>
				<path id="XMLID_17745_" class="st37" d="M696,347.3c3.6,1.1,9.8,1,14.6-0.1c7.6-1.2,20.5-13.3,22-14.5
					c10.3-8.7,16.9-21.8,16.9-36.3v-45.5c0-16.3-13.2-29.6-29.6-29.6h-36.2c-16.3,0-29.6,13.2-29.6,29.6v45.5
					c0,14.6,6.6,27.6,16.9,36.3C672.4,334,686.4,345.2,696,347.3z M723.4,323.5c0,8.8-43.3,8.8-43.3,0v-4.7c0-3.1,1.1-5.9,2.9-8.2
					c3.2-4.1,8.9-6.7,15.4-6.7h6.9c6.4,0,12.1,2.5,15.4,6.7c1.8,2.3,2.9,5.1,2.9,8.2V323.5z M659.8,294.8v-40.1
					c0-14.4,11.7-26.1,26.1-26.1h31.9c14.4,0,26.1,11.7,26.1,26.1v40.1c0,4.6-3.4,8.3-8.8,11.1c-2.8,1.4-6.2,0.6-8-1.9
					c-4.2-5.8-11.9-9.4-20.7-9.4h-9.1c-8.8,0-16.6,3.6-20.7,9.4c-1.8,2.5-5.2,3.4-8,1.9C663.1,303.1,659.8,299.4,659.8,294.8z"/>
				<path id="XMLID_17744_" class="st23" d="M743.6,253.5c4,0,7.2-3.2,7.2-7.2v-20.1c0-16.5-13.4-29.9-29.9-29.9H680
					c-16.5,0-29.9,13.4-29.9,29.9v20.1c0,4,3.2,7.2,7.2,7.2H743.6z"/>
				<path id="XMLID_17743_" class="st34" d="M743.8,270.1v-4.8h-84v4.8C687.9,266.8,715.9,266.9,743.8,270.1z"/>
				<path id="XMLID_17742_" class="st34" d="M654.1,267.5h-1.2c-1.1,7.7-1.1,15.4,0,23.1l1.2,0V267.5z"/>
				<path id="XMLID_17741_" class="st34" d="M750.6,267.5h-1.2v23.1l1.2,0C751.7,282.9,751.7,275.2,750.6,267.5z"/>
				<path id="XMLID_17740_" class="st38" d="M750.8,239.6c0-6.8-100.7-6.8-100.7,0v9h100.7V239.6z"/>
				<path id="XMLID_17472_" class="st23" d="M748.6,265.2c2.7,0,4.9-2.2,4.9-4.9v-15.4c0-2.7-2.2-4.9-4.9-4.9h-96.2
					c-2.7,0-4.9,2.2-4.9,4.9v15.4c0,2.7,2.2,4.9,4.9,4.9H748.6z"/>
			</g>
			<g id="XMLID_17469_">
				<path id="XMLID_17470_" class="st21" d="M653.6,512.7V504c0-0.4-0.3-0.6-0.6-0.6c-0.4,0-0.6,0.3-0.6,0.6v8.7c0,2.2-1.8,4-4,4
					H642v1.3h6.2C651.2,518,653.6,515.6,653.6,512.7z"/>
			</g>
			<g id="XMLID_17467_">
				<path id="XMLID_17468_" class="st21" d="M748,503.3c-0.4,0-0.6,0.3-0.6,0.6v8.7c0,2.9,2.4,5.3,5.3,5.3h6.2v-1.3h-6.2
					c-2.2,0-4-1.8-4-4V504C748.7,503.6,748.4,503.3,748,503.3z"/>
			</g>
		</g>
		<g id="XMLID_17258_">
			<g id="XMLID_18680_">
				<path id="XMLID_18948_" class="st39" d="M966.2,846.2H848.7c-7.3,0-13.3-5.8-13.5-13.1l-6.9-237.5h158.4l-6.9,237.5
					C979.5,840.4,973.5,846.2,966.2,846.2z"/>
				<path id="XMLID_18943_" class="st8" d="M993.5,595.6H821.4c-2.7,0-4.9-2.2-4.9-4.9v-9.1c0-2.7,2.2-4.9,4.9-4.9h172.1
					c2.7,0,4.9,2.2,4.9,4.9v9.1C998.4,593.4,996.2,595.6,993.5,595.6z"/>
				<path id="XMLID_18942_" class="st40" d="M907.4,595.6h-79.2l6.9,237.5c0.2,7.3,6.2,13.1,13.5,13.1h58.8V595.6z"/>
				<path id="XMLID_18941_" class="st41" d="M907.4,576.7h-86.5c-2.4,0-4.4,1.9-4.4,4.2v10.4c0,2.3,2,4.2,4.4,4.2h86.5V576.7z"/>
				<path id="XMLID_18940_" class="st42" d="M828.2,595.6c53.9,13.8,106.7,13.5,158.4,0H828.2z"/>
				<g id="XMLID_18681_">
					<path id="XMLID_18933_" class="st43" d="M905.2,678.2l22.7,0.9l9.5-22.8l-9.9,5.8c0,0-3.7-5.2-4.8-6.5c-1.1-1.4-1-3.6-13.5-3.7
						s-13.7,0.8-15.3,3l-10.6,15.5l16.3,10.6l7.8-15.3c1.3-2,3-1.9,4.4,0.9l2.3,4.7L905.2,678.2z"/>
					<path id="XMLID_18932_" class="st43" d="M898.6,703.3l-9.5-20.7l-24.6,1.8l9.7,6.2c0,0-2.9,5.6-3.7,7.2
						c-0.7,1.6-2.7,2.5,2.8,13.7s6.9,11.9,9.6,12.3l18.7,2.5l2.1-19.3l-17.1,0c-2.4-0.2-3.1-1.8-1.2-4.4l3.1-4.1L898.6,703.3z"/>
					<path id="XMLID_18778_" class="st43" d="M923.6,695.5l-10.7,20.1l16.4,18.4l-0.9-11.5c0,0,6.3-1.1,8-1.4s3.6,0.6,9.2-10.5
						s5.2-12.7,4-15.1l-9.4-16.3l-16.7,10.1l10.4,13.7c1.3,2,0.4,3.5-2.8,3.6l-5.2,0L923.6,695.5z"/>
				</g>
			</g>
			<path id="XMLID_19052_" class="st44" d="M838.8,576.7l5.5-10.2c0,0,13.5-1.5,14.5-1.5s15.8-3.3,17-4.8s2.3-4,2.3-4l17-4l2.4-1.2
				l16.8-0.3l15.8,2.2c0,0,7.8,7,8.3,7.3s8.8,1.3,9.5,1.9c0.8,0.6,6,5.6,6.3,6.9s9-0.5,9-0.5l4.3,2.5l3.5,4.3v1.5L838.8,576.7z"/>
			<path id="XMLID_19054_" class="st44" d="M897.6,552.3l-1.3-8.5l-4.9-7.1v-1.6l2.1-1l7,1.1h4.1l5.8-1.8l5.5,1.1l1.8,1.1l-1.3,3
				l-1.8,1.3c0,0-0.5,3.3-0.5,4s0,6.8,0,6.8s-2.5,3.3-3,4.3s-7.9,2.1-7.9,2.1H898L897.6,552.3z"/>
			<path id="XMLID_19053_" class="st45" d="M914.4,550.7h-17.5c-0.4,0-0.8-0.3-0.8-0.8v-1.2c0-0.4,0.3-0.8,0.8-0.8h17.5
				c0.4,0,0.8,0.3,0.8,0.8v1.2C915.1,550.4,914.8,550.7,914.4,550.7z"/>
			<path id="XMLID_17257_" class="st46" d="M854.1,576.7v-3.1l8.4-1l10.9-4.4l5.3-3.3l10.4-1.3l-4.8,1.6c0,0-6.5,2.8-6.5,3.1
				s-5.5,4.3-5.6,4.6s-5.4,0.3-5.4,0.3l-2.1,3.4H854.1z"/>
			<path id="XMLID_17251_" class="st46" d="M898.3,576.7l2.3-2.6l0.6-3.9l2.4-2.7l1.3-4.2l0.8-3.1c0,0-0.1,3.1,0,3.5s0,3.3,0,3.3
				l-0.9,2.3l-0.4,3.2l0.5,1.9l0.3,2.3H898.3z"/>
			<polygon id="XMLID_17259_" class="st46" points="928.7,566.4 934.7,568.5 943.6,570.3 946.4,573 950.1,573.3 954.7,575.1 
				957.6,575.6 958.6,576.7 950.4,576.7 949,575.4 945.5,574.5 944.6,572.7 940.7,571.8 934.4,571.3 932.8,569 			"/>
		</g>
	</g>
</g>
</svg>
